<?xml version="1.0" encoding="UTF-8"?>
<svg xmlns="http://www.w3.org/2000/svg" xmlns:xlink="http://www.w3.org/1999/xlink" width="26px" height="26px" viewBox="0 0 26 26" version="1.1">
<g id="surface1">
<path style=" stroke:none;fill-rule:nonzero;fill:rgb(0%,0%,0%);fill-opacity:1;" d="M 16.085938 13 L 25.742188 3.34375 C 26.085938 3 26.085938 2.445312 25.742188 2.105469 L 23.898438 0.257812 C 23.734375 0.09375 23.511719 0 23.277344 0 C 23.042969 0 22.820312 0.09375 22.65625 0.257812 L 13 9.914062 L 3.34375 0.257812 C 3.179688 0.09375 2.957031 0 2.722656 0 C 2.488281 0 2.265625 0.09375 2.101562 0.257812 L 0.257812 2.105469 C -0.0859375 2.445312 -0.0859375 3 0.257812 3.34375 L 9.914062 13 L 0.257812 22.65625 C -0.0859375 23 -0.0859375 23.554688 0.257812 23.894531 L 2.105469 25.742188 C 2.269531 25.90625 2.492188 26 2.722656 26 C 2.957031 26 3.179688 25.90625 3.34375 25.742188 L 13 16.085938 L 22.65625 25.742188 C 22.820312 25.90625 23.042969 26 23.277344 26 C 23.507812 26 23.730469 25.90625 23.894531 25.742188 L 25.742188 23.894531 C 26.085938 23.554688 26.085938 23 25.742188 22.65625 Z M 16.085938 13 "/>
</g>
</svg>
